<svg id="bc0a876b-95c0-422e-8ac6-69db86d3ccb4" data-name="Layer 1" xmlns="http://www.w3.org/2000/svg" viewBox="0 0 137.89351 143.35015">
  <defs>
    <style>
      .e2a8f8b0-e545-4296-8e9c-925cbaab2a96 {
        fill: #e66aa3;
      }

      .a71499a8-d602-44cd-9a0c-75dfabf744c2 {
        fill: #fff;
      }

      .b500fff6-2b04-41f0-bca3-429621a6df41 {
        fill: #e15498;
      }

      .a28078cd-ee7d-4e3b-bfbf-6cc1be043e8b {
        fill: #e85699;
      }

      .bb167654-c03b-4c50-8702-322bf76ea590, .e16447b6-1258-41f1-be60-c8ae014f6bdb {
        fill: #e35799;
      }

      .ed0b7cb4-78d6-4506-be2c-2805d25f570e {
        fill: #eb639e;
      }

      .bb167654-c03b-4c50-8702-322bf76ea590 {
        font-size: 35.79391px;
        font-family: Raleway-Medium, Raleway;
        font-weight: 500;
      }

      .b17d87df-0bcc-4b19-afcc-b5dca40fc47b {
        letter-spacing: -0.00899em;
      }

      .b89c0369-435c-4048-b09c-1afb8a84d06c {
        letter-spacing: -0.01199em;
      }
    </style>
  </defs>
  <title>logo eureka</title>
  <g>
    <g>
      <g>
        <path class="e2a8f8b0-e545-4296-8e9c-925cbaab2a96" d="M133.63639,160.95839s-23.3518-9.0847-12.46165-21.68042a16.36313,16.36313,0,0,1,23.20489-1.61166C149.7265,142.43371,151.29183,150.07073,133.63639,160.95839Z" transform="translate(-64.72132 -67.90181)"/>
        <path class="a71499a8-d602-44cd-9a0c-75dfabf744c2" d="M133.71482,161.82027l-.3594-.13987c-.55246-.21489-13.55409-5.35787-15.58458-13.53323-.783-3.153.16494-6.30755,2.81782-9.37583a17.11175,17.11175,0,0,1,11.92548-5.92188,16.81774,16.81774,0,0,1,12.38109,4.23847c2.8121,2.50728,4.10422,5.29711,3.84069,8.29189-.44328,5.036-5.38672,10.49911-14.69293,16.2381Zm-.06431-27.45818q-.51576,0-1.03584.0335a15.57441,15.57441,0,0,0-10.85387,5.38921c-2.30363,2.66445-3.14026,5.3516-2.48652,7.98686,1.66179,6.69819,12.21581,11.44534,14.29029,12.31958,8.64978-5.38834,13.23469-10.383,13.6277-14.84719.21835-2.48069-.90148-4.83578-3.32823-6.99955A15.24687,15.24687,0,0,0,133.65051,134.36209Z" transform="translate(-64.72132 -67.90181)"/>
      </g>
      <g>
        <path class="b500fff6-2b04-41f0-bca3-429621a6df41" d="M133.58585,140.46646s-40.16338-1.208-23.17165-67.748C110.41419,72.7185,143.27818,116.35022,133.58585,140.46646Z" transform="translate(-64.72132 -67.90181)"/>
        <path class="a71499a8-d602-44cd-9a0c-75dfabf744c2" d="M134.10308,141.25722l-.54056-.01643a28.34452,28.34452,0,0,1-20.371-11.41507c-4.02-5.33949-6.5033-12.28867-7.38089-20.65471-1.06351-10.13917.23272-22.468,3.8528-36.6442l.39907-1.56278.97055,1.28845a184.98322,184.98322,0,0,1,15.29371,24.9483,101.24117,101.24117,0,0,1,8.48256,22.33271c1.93613,8.43133,1.76632,15.5714-.50457,21.222ZM110.76329,74.51353c-6.07937,24.75633-4.85416,43.03671,3.64645,54.35385a27.4752,27.4752,0,0,0,18.661,10.78252c4.507-12.15874-1.89527-29.35928-8.11819-41.73269A185.9899,185.9899,0,0,0,110.76329,74.51353Z" transform="translate(-64.72132 -67.90181)"/>
      </g>
      <g>
        <path class="b500fff6-2b04-41f0-bca3-429621a6df41" d="M133.11548,140.46646s40.16336-1.208,23.17166-67.748C156.28714,72.7185,123.42315,116.35022,133.11548,140.46646Z" transform="translate(-64.72132 -67.90181)"/>
        <path class="a71499a8-d602-44cd-9a0c-75dfabf744c2" d="M132.59824,141.25722l-.2017-.50176c-2.27089-5.65057-2.4407-12.79064-.50457-21.222a101.24167,101.24167,0,0,1,8.48256-22.33271,184.98322,184.98322,0,0,1,15.29371-24.9483l.97055-1.28845.39908,1.56278c3.62008,14.17616,4.91631,26.505,3.8528,36.6442-.8776,8.366-3.36088,15.31522-7.3809,20.65471a28.34449,28.34449,0,0,1-20.371,11.41507Zm.494-1.56516ZM155.938,74.51353A185.98837,185.98837,0,0,0,141.7488,97.91721c-6.22291,12.37341-12.62515,29.57395-8.11818,41.73269a27.4752,27.4752,0,0,0,18.661-10.78252C160.7922,117.55024,162.01741,99.26986,155.938,74.51353Z" transform="translate(-64.72132 -67.90181)"/>
      </g>
      <g>
        <path class="a28078cd-ee7d-4e3b-bfbf-6cc1be043e8b" d="M133.58585,140.46646s3.37083-46.10131,45.59289-55.76151c0,0-5.1536,37.92409-20.49212,48.23606S133.58585,140.46646,133.58585,140.46646Z" transform="translate(-64.72132 -67.90181)"/>
        <path class="a71499a8-d602-44cd-9a0c-75dfabf744c2" d="M137.05451,141.59749a14.39614,14.39614,0,0,1-3.68126-.3861l-.60606-.17295.04593-.62844a76.44181,76.44181,0,0,1,7.0376-24.53734,61.15279,61.15279,0,0,1,13.87069-18.95313,55.44409,55.44409,0,0,1,25.28447-12.96986L180.09717,83.7l-.15068,1.10945A153.03248,153.03248,0,0,1,175.4272,105.177c-4.307,14.46995-9.79393,24.02737-16.30836,28.40679C149.02074,140.37282,141.306,141.59749,137.05451,141.59749Zm-2.629-1.7541c2.35736.3688,11.179.959,23.8288-7.54541,13.40806-9.01416,18.98124-40.23391,19.98649-46.57259-20.7601,5.16049-31.55451,19.52515-36.97063,30.77117A76.13752,76.13752,0,0,0,134.42552,139.84339Z" transform="translate(-64.72132 -67.90181)"/>
      </g>
      <g>
        <path class="a28078cd-ee7d-4e3b-bfbf-6cc1be043e8b" d="M133.018,140.46646S129.6472,94.36515,87.42514,84.705c0,0,5.15359,37.92409,20.49212,48.23606S133.018,140.46646,133.018,140.46646Z" transform="translate(-64.72132 -67.90181)"/>
        <path class="a71499a8-d602-44cd-9a0c-75dfabf744c2" d="M129.54942,141.59749c-4.25122,0-11.96537-1.224-22.06443-8.01366-6.51444-4.37942-12.00136-13.93684-16.30836-28.40679a153.03061,153.03061,0,0,1-4.51929-20.36761L86.50666,83.7l1.09129.24969a55.4441,55.4441,0,0,1,25.28446,12.96986,61.15291,61.15291,0,0,1,13.8708,18.95313,76.44181,76.44181,0,0,1,7.0376,24.53734l.04594.62844-.606.17295A14.4049,14.4049,0,0,1,129.54942,141.59749ZM88.363,85.72539c1.00524,6.33868,6.57842,37.55843,19.98648,46.57259,12.64872,8.50353,21.4708,7.91357,23.82891,7.54541a76.139,76.139,0,0,0-6.84465-23.34683C119.91763,105.25054,109.12311,90.88588,88.363,85.72539Z" transform="translate(-64.72132 -67.90181)"/>
      </g>
      <g>
        <path class="e16447b6-1258-41f1-be60-c8ae014f6bdb" d="M133.58585,140.46646s-18.61789-8.649-14.66142-37.67709a54.79422,54.79422,0,0,1,6.13335-18.64688l7.89312-14.59592s15.147,28.7227,14.94949,45.40192S133.58585,140.46646,133.58585,140.46646Z" transform="translate(-64.72132 -67.90181)"/>
        <path class="a71499a8-d602-44cd-9a0c-75dfabf744c2" d="M133.64067,141.34629l-.38124-.17727a26.04229,26.04229,0,0,1-9.11727-8.20347c-3.87766-5.39786-8.06371-15.0331-5.98544-30.28087a55.37194,55.37194,0,0,1,6.21957-18.91077l8.58319-15.8721.67676,1.28326c.62228,1.17992,15.23642,29.08862,15.03883,45.77249a31.16886,31.16886,0,0,1-7.40911,19.49856,33.77133,33.77133,0,0,1-7.26891,6.66707Zm-.466-1.53663ZM132.932,71.21048l-7.1927,13.30061a53.82736,53.82736,0,0,0-6.04727,18.38285c-2.00239,14.69132,1.97061,23.9303,5.656,29.09382a25.998,25.998,0,0,0,8.18833,7.57913,34.14388,34.14388,0,0,0,6.57011-6.14023,29.62734,29.62734,0,0,0,7.01911-18.48726C147.29485,100.64435,135.84551,76.99141,132.932,71.21048Z" transform="translate(-64.72132 -67.90181)"/>
      </g>
      <g>
        <path class="ed0b7cb4-78d6-4506-be2c-2805d25f570e" d="M133.45719,140.46646s-22.85464-41.41121-67.50088-25.8651C65.95631,114.60136,87.00069,143.87155,133.45719,140.46646Z" transform="translate(-64.72132 -67.90181)"/>
        <path class="a71499a8-d602-44cd-9a0c-75dfabf744c2" d="M126.05537,141.51513a89.03679,89.03679,0,0,1-22.94342-2.90485,78.173,78.173,0,0,1-21.236-9.1417c-11.07092-6.89383-16.33031-14.11108-16.54876-14.415l-.60585-.84268.98017-.34135c10.31622-3.59231,20.33875-4.44839,29.78992-2.5449a53.42894,53.42894,0,0,1,21.42043,9.758A66.26766,66.26766,0,0,1,134.13562,140.092l.58423,1.05886-1.206.0882Q129.74551,141.51535,126.05537,141.51513ZM67.24082,114.98307a64.367,64.367,0,0,0,15.5194,13.21047c9.81435,6.097,26.2909,12.99061,49.38025,11.58478A67.26643,67.26643,0,0,0,115.94118,122.292C101.45977,111.53064,85.07931,109.07373,67.24082,114.98307Z" transform="translate(-64.72132 -67.90181)"/>
      </g>
      <g>
        <path class="ed0b7cb4-78d6-4506-be2c-2805d25f570e" d="M133.879,140.46646s22.85464-41.4112,67.50088-25.8651C201.37992,114.60136,180.33554,143.87155,133.879,140.46646Z" transform="translate(-64.72132 -67.90181)"/>
        <path class="a71499a8-d602-44cd-9a0c-75dfabf744c2" d="M141.28088,141.51513q-3.68846,0-7.45851-.27607l-1.206-.0882.58423-1.05886a66.2676,66.2676,0,0,1,17.22379-19.00935,53.42909,53.42909,0,0,1,21.42031-9.758c9.45106-1.90349,19.4736-1.04719,29.78992,2.5449l.98017.34135-.60585.84268c-.21845.304-5.47784,7.5212-16.54875,14.415a78.17317,78.17317,0,0,1-21.236,9.1417A89.04622,89.04622,0,0,1,141.28088,141.51513Zm-6.0851-1.73681c23.127,1.40842,39.62222-5.50854,49.44532-11.62521a64.19312,64.19312,0,0,0,15.45509-13.16961c-17.8385-5.90977-34.21939-3.45308-48.70112,7.30848A67.26851,67.26851,0,0,0,135.19578,139.77832Z" transform="translate(-64.72132 -67.90181)"/>
      </g>
      <g>
        <path class="e2a8f8b0-e545-4296-8e9c-925cbaab2a96" d="M133.45719,140.46646s-21.84442-22.005-63.00515,1.84107C70.452,142.30754,108.18922,165.75465,133.45719,140.46646Z" transform="translate(-64.72132 -67.90181)"/>
        <path class="a71499a8-d602-44cd-9a0c-75dfabf744c2" d="M104.46579,152.97819a57.9794,57.9794,0,0,1-12.14761-1.35027,76.33319,76.33319,0,0,1-22.319-8.69183l-.97066-.69935,1.03519-.59969c9.47-5.48627,18.71274-8.99945,27.47169-10.44182a50.70118,50.70118,0,0,1,20.03362.49571c10.69821,2.5423,16.2087,7.99853,16.43807,8.22963l.5437.54758-.54543.54587a39.63772,39.63772,0,0,1-20.906,11.16927A45.84659,45.84659,0,0,1,104.46579,152.97819ZM72.00515,142.31262a77.77469,77.77469,0,0,0,20.72821,7.81953c16.09,3.42649,29.4063.18289,39.59465-9.64238a36.73747,36.73747,0,0,0-15.21469-7.31431C107.76581,130.97689,92.41406,130.82232,72.00515,142.31262Z" transform="translate(-64.72132 -67.90181)"/>
      </g>
      <g>
        <path class="e2a8f8b0-e545-4296-8e9c-925cbaab2a96" d="M133.30308,140.46646s21.84443-22.005,63.00517,1.84108C196.30824,142.30754,158.57105,165.75465,133.30308,140.46646Z" transform="translate(-64.72132 -67.90181)"/>
        <path class="a71499a8-d602-44cd-9a0c-75dfabf744c2" d="M162.29455,152.97819a45.855,45.855,0,0,1-8.6327-.79468A39.63834,39.63834,0,0,1,132.755,141.014l-.54543-.54587.5437-.54758c.22937-.2311,5.73975-5.68733,16.438-8.22963a50.70974,50.70974,0,0,1,20.03373-.49549c8.75895,1.44215,18.00171,4.95533,27.47169,10.44182l1.11712.64725-1.09658.68119a78.29838,78.29838,0,0,1-22.27359,8.662A57.99237,57.99237,0,0,1,162.29455,152.97819Zm-27.86222-12.48842c10.19937,9.83543,23.53155,13.07687,39.64373,9.63179a77.90989,77.90989,0,0,0,20.67859-7.80894c-20.40707-11.48879-35.76077-11.33552-45.10763-9.13716A36.73747,36.73747,0,0,0,134.43233,140.48977Z" transform="translate(-64.72132 -67.90181)"/>
      </g>
    </g>
    <text class="bb167654-c03b-4c50-8702-322bf76ea590" transform="translate(11.10456 135.36787)"><tspan class="b17d87df-0bcc-4b19-afcc-b5dca40fc47b">E</tspan><tspan x="21.3335" y="0">u</tspan><tspan class="b89c0369-435c-4048-b09c-1afb8a84d06c" x="42.8457" y="0">r</tspan><tspan x="55.40918" y="0">eka</tspan></text>
  </g>
</svg>
